<?xml version="1.0" encoding="UTF-8"?>
<!DOCTYPE svg PUBLIC "-//W3C//DTD SVG 1.1//EN" "http://www.w3.org/Graphics/SVG/1.1/DTD/svg11.dtd">
<svg xmlns="http://www.w3.org/2000/svg" version="1.1" width="32px" height="32px" style="shape-rendering:geometricPrecision; text-rendering:geometricPrecision; image-rendering:optimizeQuality; fill-rule:evenodd; clip-rule:evenodd" xmlns:xlink="http://www.w3.org/1999/xlink">
<g><path style="opacity:0.987" fill="#fffbff" d="M -0.5,-0.5 C 10.1667,-0.5 20.8333,-0.5 31.5,-0.5C 31.5,10.1667 31.5,20.8333 31.5,31.5C 20.8333,31.5 10.1667,31.5 -0.5,31.5C -0.5,20.8333 -0.5,10.1667 -0.5,-0.5 Z"/></g>
<g><path style="opacity:1" fill="#ff3bff" d="M 8.5,4.5 C 12.8333,4.5 17.1667,4.5 21.5,4.5C 21.67,5.82207 21.3366,6.98873 20.5,8C 17.854,8.49742 15.1873,8.66409 12.5,8.5C 12.5,10.1667 12.5,11.8333 12.5,13.5C 14.288,13.2148 15.9547,13.5481 17.5,14.5C 17.3333,14.8333 17.1667,15.1667 17,15.5C 14.9592,16.4231 12.7925,16.7564 10.5,16.5C 10.196,19.5219 9.69596,22.5219 9,25.5C 7.98873,26.3366 6.82207,26.67 5.5,26.5C 5.26006,23.4212 5.59339,20.4212 6.5,17.5C 2.79941,16.2632 2.96608,14.9298 7,13.5C 9.26169,8.70454 8.26169,7.70454 4,10.5C 3.5,10.1667 3,9.83333 2.5,9.5C 4.16187,7.34834 6.16187,5.68167 8.5,4.5 Z"/></g>
<g><path style="opacity:1" fill="#ff29ff" d="M 21.5,12.5 C 28.7583,11.5546 30.0917,13.7213 25.5,19C 28.1667,21 28.1667,23 25.5,25C 23.1667,25.6667 20.8333,25.6667 18.5,25C 15.8953,23.0692 15.8953,21.2358 18.5,19.5C 19.8448,20.3467 20.8448,21.5134 21.5,23C 22.3317,23.6877 22.9984,23.521 23.5,22.5C 21.7389,20.7475 20.4056,18.7475 19.5,16.5C 19.7517,14.9271 20.4183,13.5938 21.5,12.5 Z"/></g>
<g><path style="opacity:1" fill="#ffbbff" d="M 23.5,14.5 C 25.337,14.6395 25.6704,15.3061 24.5,16.5C 23.7025,16.0431 23.3691,15.3764 23.5,14.5 Z"/></g>
</svg>
